<?xml version="1.0" encoding="UTF-8" standalone="no"?>
<svg
   xmlns:dc="http://purl.org/dc/elements/1.1/"
   xmlns:cc="http://creativecommons.org/ns#"
   xmlns:rdf="http://www.w3.org/1999/02/22-rdf-syntax-ns#"
   xmlns:svg="http://www.w3.org/2000/svg"
   xmlns="http://www.w3.org/2000/svg"
   xml:space="preserve"
   width="512"
   viewBox="0 0 511.99999 511.99999"
   version="1.1"
   id="Layer_1"
   height="512"
   enable-background="new 0 0 56.693 56.693"><metadata
     id="metadata857"><rdf:RDF><cc:Work
         rdf:about=""><dc:format>image/svg+xml</dc:format><dc:type
           rdf:resource="http://purl.org/dc/dcmitype/StillImage" /><dc:title></dc:title></cc:Work></rdf:RDF></metadata><defs
     id="defs855" /><g
     transform="matrix(10.327174,0,0,10.262003,-34.78283,-46.516289)"
     id="g850"><path
       id="path846"
       d="m 30.071,27.101 v -0.077 c -0.016,0.026 -0.033,0.052 -0.05,0.077 z" /><path
       id="path848"
       d="M 49.265,4.667 H 7.145 c -2.016,0 -3.651,1.596 -3.651,3.563 v 42.613 c 0,1.966 1.635,3.562 3.651,3.562 h 42.12 c 2.019,0 3.654,-1.597 3.654,-3.562 V 8.23 c 0,-1.968 -1.636,-3.563 -3.654,-3.563 z M 18.475,46.304 H 11.01 V 23.845 h 7.465 z M 14.743,20.777 h -0.05 c -2.504,0 -4.124,-1.725 -4.124,-3.88 0,-2.203 1.67,-3.88 4.223,-3.88 2.554,0 4.125,1.677 4.175,3.88 0,2.155 -1.622,3.88 -4.224,3.88 z M 45.394,46.304 H 37.929 V 34.286 c 0,-3.018 -1.08,-5.078 -3.781,-5.078 -2.062,0 -3.29,1.389 -3.831,2.731 -0.197,0.479 -0.245,1.149 -0.245,1.821 v 12.543 h -7.465 c 0,0 0.098,-20.354 0,-22.459 h 7.465 v 3.179 c 0.992,-1.53 2.766,-3.709 6.729,-3.709 4.911,0 8.594,3.211 8.594,10.11 v 12.88 z" /></g></svg>
