<?xml version="1.0" encoding="UTF-8" standalone="no"?>
<svg
   xmlns:dc="http://purl.org/dc/elements/1.1/"
   xmlns:cc="http://creativecommons.org/ns#"
   xmlns:rdf="http://www.w3.org/1999/02/22-rdf-syntax-ns#"
   xmlns:svg="http://www.w3.org/2000/svg"
   xmlns="http://www.w3.org/2000/svg"
   height="512"
   width="512"
   id="svg877"
   version="1.1"
   viewBox="0 0 512 512">
  <metadata
     id="metadata883">
    <rdf:RDF>
      <cc:Work
         rdf:about="">
        <dc:format>image/svg+xml</dc:format>
        <dc:type
           rdf:resource="http://purl.org/dc/dcmitype/StillImage" />
        <dc:title></dc:title>
      </cc:Work>
    </rdf:RDF>
  </metadata>
  <defs
     id="defs881" />
  <g
     transform="matrix(18.207834,0,0,18.250854,-34.384167,-34.470128)"
     id="Email">
    <path
       id="path874"
       d="M 26.49,30 H 5.5 A 3.35,3.35 0 0 1 3,29 3.35,3.35 0 0 1 2,26.52 V 5.5 A 3.35,3.35 0 0 1 3,3 3.35,3.35 0 0 1 5.5,2 h 21 a 3.35,3.35 0 0 1 2.5,1 3.35,3.35 0 0 1 1,2.5 v 21 A 3.52,3.52 0 0 1 26.49,30 Z m -2.62,-6.9 a 1,1 0 0 0 0.57,-0.19 1.23,1.23 0 0 0 0.7,-1.1 V 9.93 A 0.93,0.93 0 0 0 25,9.4 1.32,1.32 0 0 0 23.87,8.66 H 7.93 A 0.69,0.69 0 0 0 7.63,8.76 1.26,1.26 0 0 0 6.77,9.9 v 11.91 a 1,1 0 0 0 0.17,0.55 1.28,1.28 0 0 0 1.12,0.74 z M 22.51,20.44 H 9.41 V 13 L 16,18.21 22.51,13 Z M 16,14.81 c -2.89,-2.28 -4.37,-3.46 -4.44,-3.52 h 8.84 z" />
  </g>
</svg>
