<svg id="visual" viewBox="0 0 960 300" width="960" height="300" xmlns="http://www.w3.org/2000/svg" xmlns:xlink="http://www.w3.org/1999/xlink" version="1.1"><rect x="0" y="0" width="960" height="300" fill="#111827"></rect><path d="M0 213L17.8 222.3C35.7 231.7 71.3 250.3 106.8 255.5C142.3 260.7 177.7 252.3 213.2 235.7C248.7 219 284.3 194 320 177C355.7 160 391.3 151 426.8 149C462.3 147 497.7 152 533.2 156.5C568.7 161 604.3 165 640 174C675.7 183 711.3 197 746.8 204.7C782.3 212.3 817.7 213.7 853.2 202.7C888.7 191.7 924.3 168.3 942.2 156.7L960 145" fill="none" stroke-linecap="round" stroke-linejoin="miter" stroke="#1e3a8a" stroke-width="40"></path></svg>