<?xml version="1.0" encoding="UTF-8" standalone="no"?>
<svg
   xmlns:dc="http://purl.org/dc/elements/1.1/"
   xmlns:cc="http://creativecommons.org/ns#"
   xmlns:rdf="http://www.w3.org/1999/02/22-rdf-syntax-ns#"
   xmlns:svg="http://www.w3.org/2000/svg"
   xmlns="http://www.w3.org/2000/svg"
   xmlns:sodipodi="http://sodipodi.sourceforge.net/DTD/sodipodi-0.dtd"
   xmlns:inkscape="http://www.inkscape.org/namespaces/inkscape"
   inkscape:version="1.0 (4035a4fb49, 2020-05-01)"
   height="34.41539"
   width="35"
   sodipodi:docname="html-wit.svg"
   xml:space="preserve"
   viewBox="0 0 35 34.41539"
   y="0px"
   x="0px"
   id="Layer_1"
   version="1.1"><metadata
   id="metadata1761"><rdf:RDF><cc:Work
       rdf:about=""><dc:format>image/svg+xml</dc:format><dc:type
         rdf:resource="http://purl.org/dc/dcmitype/StillImage" /><dc:title></dc:title></cc:Work></rdf:RDF></metadata><defs
   id="defs1759" /><sodipodi:namedview
   inkscape:current-layer="Layer_1"
   inkscape:window-maximized="1"
   inkscape:window-y="-8"
   inkscape:window-x="-8"
   inkscape:cy="251.724"
   inkscape:cx="256"
   inkscape:zoom="1.6152344"
   fit-margin-bottom="0"
   fit-margin-right="0"
   fit-margin-left="0"
   fit-margin-top="0"
   inkscape:pagecheckerboard="true"
   showgrid="false"
   id="namedview1757"
   inkscape:window-height="1017"
   inkscape:window-width="1920"
   inkscape:pageshadow="2"
   inkscape:pageopacity="0"
   guidetolerance="10"
   gridtolerance="10"
   objecttolerance="10"
   borderopacity="1"
   bordercolor="#666666"
   pagecolor="#ffffff" />
<g
   transform="matrix(0.06835924,0,0,0.06835924,0,-0.29230411)"
   style="fill:#ffffff"
   id="g1676">
	<g
   style="fill:#ffffff"
   id="g1674">
		<path
   style="fill:#ffffff;fill-opacity:1"
   id="path1672"
   d="M 503.983,4.276 H 8.017 C 3.589,4.276 0,7.865 0,12.292 v 102.614 384.802 c 0,4.427 3.589,8.017 8.017,8.017 h 495.967 c 4.428,0 8.017,-3.589 8.017,-8.017 V 114.906 12.292 C 512,7.865 508.412,4.276 503.983,4.276 Z m -8.016,487.415 H 16.033 V 122.923 h 479.933 v 368.768 z m 0,-384.802 H 16.033 v -86.58 h 479.933 v 86.58 z" />
	</g>
</g>
<g
   transform="matrix(0.06835924,0,0,0.06835924,0,-0.29230411)"
   style="fill:#ffffff"
   id="g1682">
	<g
   style="fill:#ffffff"
   id="g1680">
		<path
   style="fill:#ffffff;fill-opacity:1"
   id="path1678"
   d="M 427.023,38.48 H 332.96 c -4.428,0 -8.017,3.589 -8.017,8.017 0,4.427 3.588,8.017 8.017,8.017 h 94.063 c 4.428,0 8.017,-3.589 8.017,-8.017 0,-4.427 -3.589,-8.017 -8.017,-8.017 z" />
	</g>
</g>
<g
   transform="matrix(0.06835924,0,0,0.06835924,0,-0.29230411)"
   style="fill:#ffffff"
   id="g1688">
	<g
   style="fill:#ffffff"
   id="g1686">
		<path
   style="fill:#ffffff;fill-opacity:1"
   id="path1684"
   d="m 469.779,38.48 h -17.102 c -4.428,0 -8.017,3.589 -8.017,8.017 0,4.427 3.588,8.017 8.017,8.017 h 17.102 c 4.428,0 8.017,-3.589 8.017,-8.017 -10e-4,-4.427 -3.589,-8.017 -8.017,-8.017 z" />
	</g>
</g>
<g
   transform="matrix(0.06835924,0,0,0.06835924,0,-0.29230411)"
   style="fill:#ffffff"
   id="g1694">
	<g
   style="fill:#ffffff"
   id="g1692">
		<path
   style="fill:#ffffff;fill-opacity:1"
   id="path1690"
   d="m 264.551,29.929 c -18.566,0 -33.67,15.105 -33.67,33.67 0,18.565 15.105,33.67 33.67,33.67 18.565,0 33.67,-15.104 33.67,-33.67 0,-18.566 -15.104,-33.67 -33.67,-33.67 z m 0,51.307 c -9.725,0 -17.637,-7.912 -17.637,-17.637 0,-9.725 7.912,-17.637 17.637,-17.637 9.725,0 17.637,7.912 17.637,17.637 0,9.725 -7.912,17.637 -17.637,17.637 z" />
	</g>
</g>
<g
   transform="matrix(0.06835924,0,0,0.06835924,0,-0.29230411)"
   style="fill:#ffffff"
   id="g1700">
	<g
   style="fill:#ffffff"
   id="g1698">
		<path
   style="fill:#ffffff;fill-opacity:1"
   id="path1696"
   d="m 170.489,29.929 c -18.566,0 -33.67,15.105 -33.67,33.67 0,18.565 15.105,33.67 33.67,33.67 18.565,0 33.67,-15.104 33.67,-33.67 0,-18.566 -15.105,-33.67 -33.67,-33.67 z m 0,51.307 c -9.725,0 -17.637,-7.912 -17.637,-17.637 0,-9.725 7.912,-17.637 17.637,-17.637 9.725,0 17.637,7.912 17.637,17.637 0,9.725 -7.913,17.637 -17.637,17.637 z" />
	</g>
</g>
<g
   transform="matrix(0.06835924,0,0,0.06835924,0,-0.29230411)"
   style="fill:#ffffff"
   id="g1706">
	<g
   style="fill:#ffffff"
   id="g1704">
		<path
   style="fill:#ffffff;fill-opacity:1"
   id="path1702"
   d="m 76.426,29.929 c -18.566,0 -33.67,15.105 -33.67,33.67 0,18.565 15.105,33.67 33.67,33.67 18.565,0 33.67,-15.104 33.67,-33.67 0,-18.566 -15.104,-33.67 -33.67,-33.67 z m 0,51.307 c -9.725,0 -17.637,-7.912 -17.637,-17.637 0,-9.725 7.912,-17.637 17.637,-17.637 9.725,0 17.637,7.912 17.637,17.637 0,9.725 -7.912,17.637 -17.637,17.637 z" />
	</g>
</g>
<g
   transform="matrix(0.06835924,0,0,0.06835924,0,-0.29230411)"
   style="fill:#ffffff"
   id="g1712">
	<g
   style="fill:#ffffff"
   id="g1710">
		<path
   style="fill:#ffffff"
   id="path1708"
   d="m 168.877,232.063 c 0.174,-6.422 -2.163,-12.527 -6.582,-17.191 -4.419,-4.664 -10.389,-7.327 -16.81,-7.501 -6.403,-0.175 -12.526,2.164 -17.19,6.582 l -81.236,76.96 c -4.866,4.61 -7.602,11.098 -7.507,17.801 0.095,6.703 3.015,13.112 8.011,17.581 l 81.237,72.686 c 4.417,3.951 10.109,6.126 16.028,6.126 0.001,0 0.002,0 0.003,0 6.837,0 13.371,-2.92 17.929,-8.014 8.842,-9.883 7.996,-25.117 -1.887,-33.96 l -61.769,-55.267 62.274,-58.995 c 4.661,-4.417 7.325,-10.387 7.499,-16.808 z m -18.529,5.169 -68.594,64.983 c -1.627,1.541 -2.534,3.693 -2.502,5.935 0.032,2.24 1,4.365 2.67,5.86 l 68.258,61.073 c 3.294,2.947 3.577,8.025 0.63,11.32 -1.541,1.723 -3.665,2.672 -5.982,2.672 -1.971,0 -3.867,-0.725 -5.339,-2.043 L 58.253,314.347 c -1.665,-1.49 -2.639,-3.626 -2.671,-5.86 -0.031,-2.234 0.881,-4.397 2.502,-5.933 l 81.236,-76.96 c 1.501,-1.422 3.449,-2.198 5.508,-2.198 0.074,0 0.149,0.001 0.222,0.003 2.141,0.058 4.13,0.946 5.603,2.5 1.473,1.554 2.252,3.589 2.194,5.73 -0.056,2.141 -0.944,4.131 -2.499,5.603 z" />
	</g>
</g>
<g
   transform="matrix(0.06835924,0,0,0.06835924,0,-0.29230411)"
   style="fill:#ffffff"
   id="g1718">
	<g
   style="fill:#ffffff"
   id="g1716">
		<path
   style="fill:#ffffff;fill-opacity:1"
   id="path1714"
   d="m 464.942,290.914 -81.236,-76.96 c -9.626,-9.119 -24.878,-8.709 -34.001,0.919 -9.119,9.626 -8.707,24.879 0.919,33.999 l 62.274,58.995 -61.769,55.267 c -9.882,8.843 -10.729,24.076 -1.887,33.961 4.558,5.092 11.092,8.013 17.927,8.013 0.001,0 0.002,0 0.003,0 5.921,0 11.614,-2.176 16.029,-6.127 l 81.236,-72.685 c 4.997,-4.471 7.917,-10.88 8.01,-17.583 0.096,-6.702 -2.64,-13.19 -7.505,-17.799 z m -11.196,23.434 -81.236,72.685 c -1.472,1.317 -3.367,2.043 -5.339,2.043 h -10e-4 c -2.314,0 -4.438,-0.949 -5.979,-2.671 -2.948,-3.294 -2.666,-8.373 0.628,-11.321 l 68.257,-61.073 c 1.671,-1.494 2.639,-3.619 2.67,-5.86 0.032,-2.241 -0.875,-4.393 -2.502,-5.935 L 361.65,237.233 c -3.209,-3.04 -3.347,-8.125 -0.307,-11.333 1.574,-1.661 3.696,-2.499 5.822,-2.499 1.98,0 3.965,0.727 5.511,2.193 l 81.236,76.96 c 1.623,1.536 2.533,3.699 2.502,5.933 v 0.002 h 0.001 c -0.03,2.233 -1.002,4.369 -2.669,5.859 z" />
	</g>
</g>
<g
   transform="matrix(0.06835924,0,0,0.06835924,0,-0.29230411)"
   style="fill:#ffffff"
   id="g1724">
	<g
   style="fill:#ffffff"
   id="g1722">
		<path
   style="fill:#ffffff;fill-opacity:1"
   id="path1720"
   d="m 317.703,233.713 c -1.67,-6.204 -5.656,-11.386 -11.222,-14.59 0,-10e-4 -10e-4,-10e-4 -10e-4,-10e-4 -11.495,-6.614 -26.226,-2.647 -32.842,8.843 l -81.236,141.094 c -6.617,11.492 -2.65,26.225 8.843,32.843 3.648,2.099 7.792,3.21 11.983,3.21 8.585,0 16.577,-4.619 20.857,-12.053 l 81.236,-141.093 c 3.205,-5.568 4.052,-12.051 2.382,-18.253 z m -16.276,10.251 -81.235,141.094 c -1.427,2.479 -4.096,4.019 -6.963,4.019 -1.409,0 -2.749,-0.36 -3.985,-1.071 -3.831,-2.205 -5.153,-7.117 -2.948,-10.948 l 81.237,-141.094 c 1.481,-2.573 4.184,-4.014 6.961,-4.014 1.356,0 2.73,0.344 3.987,1.068 1.856,1.068 3.184,2.795 3.74,4.862 0.557,2.067 0.275,4.228 -0.794,6.084 z" />
	</g>
</g>
<g
   transform="matrix(0.06835924,0,0,0.06835924,0,-0.29230411)"
   style="fill:#ffffff"
   id="g1726">
</g>
<g
   transform="matrix(0.06835924,0,0,0.06835924,0,-0.29230411)"
   style="fill:#ffffff"
   id="g1728">
</g>
<g
   transform="matrix(0.06835924,0,0,0.06835924,0,-0.29230411)"
   style="fill:#ffffff"
   id="g1730">
</g>
<g
   transform="matrix(0.06835924,0,0,0.06835924,0,-0.29230411)"
   style="fill:#ffffff"
   id="g1732">
</g>
<g
   transform="matrix(0.06835924,0,0,0.06835924,0,-0.29230411)"
   style="fill:#ffffff"
   id="g1734">
</g>
<g
   transform="matrix(0.06835924,0,0,0.06835924,0,-0.29230411)"
   style="fill:#ffffff"
   id="g1736">
</g>
<g
   transform="matrix(0.06835924,0,0,0.06835924,0,-0.29230411)"
   style="fill:#ffffff"
   id="g1738">
</g>
<g
   transform="matrix(0.06835924,0,0,0.06835924,0,-0.29230411)"
   style="fill:#ffffff"
   id="g1740">
</g>
<g
   transform="matrix(0.06835924,0,0,0.06835924,0,-0.29230411)"
   style="fill:#ffffff"
   id="g1742">
</g>
<g
   transform="matrix(0.06835924,0,0,0.06835924,0,-0.29230411)"
   style="fill:#ffffff"
   id="g1744">
</g>
<g
   transform="matrix(0.06835924,0,0,0.06835924,0,-0.29230411)"
   style="fill:#ffffff"
   id="g1746">
</g>
<g
   transform="matrix(0.06835924,0,0,0.06835924,0,-0.29230411)"
   style="fill:#ffffff"
   id="g1748">
</g>
<g
   transform="matrix(0.06835924,0,0,0.06835924,0,-0.29230411)"
   style="fill:#ffffff"
   id="g1750">
</g>
<g
   transform="matrix(0.06835924,0,0,0.06835924,0,-0.29230411)"
   style="fill:#ffffff"
   id="g1752">
</g>
<g
   transform="matrix(0.06835924,0,0,0.06835924,0,-0.29230411)"
   style="fill:#ffffff"
   id="g1754">
</g>
</svg>
