<?xml version="1.0" encoding="UTF-8" standalone="no"?>
<svg
   xmlns:dc="http://purl.org/dc/elements/1.1/"
   xmlns:cc="http://creativecommons.org/ns#"
   xmlns:rdf="http://www.w3.org/1999/02/22-rdf-syntax-ns#"
   xmlns:svg="http://www.w3.org/2000/svg"
   xmlns="http://www.w3.org/2000/svg"
   xmlns:sodipodi="http://sodipodi.sourceforge.net/DTD/sodipodi-0.dtd"
   xmlns:inkscape="http://www.inkscape.org/namespaces/inkscape"
   version="1.1"
   id="Layer_1"
   x="0px"
   y="0px"
   viewBox="0 0 35.000004 34.407029"
   xml:space="preserve"
   sodipodi:docname="html2.svg"
   inkscape:version="1.0 (4035a4fb49, 2020-05-01)"
   width="35.000004"
   height="34.407028"><metadata
   id="metadata1013"><rdf:RDF><cc:Work
       rdf:about=""><dc:format>image/svg+xml</dc:format><dc:type
         rdf:resource="http://purl.org/dc/dcmitype/StillImage" /><dc:title></dc:title></cc:Work></rdf:RDF></metadata><defs
   id="defs1011" /><sodipodi:namedview
   inkscape:document-rotation="0"
   pagecolor="#ffffff"
   bordercolor="#666666"
   borderopacity="1"
   objecttolerance="10"
   gridtolerance="10"
   guidetolerance="10"
   inkscape:pageopacity="0"
   inkscape:pageshadow="2"
   inkscape:window-width="1920"
   inkscape:window-height="1017"
   id="namedview1009"
   showgrid="false"
   inkscape:zoom="9.1371456"
   inkscape:cx="36.848903"
   inkscape:cy="19.214415"
   inkscape:window-x="-8"
   inkscape:window-y="-8"
   inkscape:window-maximized="1"
   inkscape:current-layer="Layer_1"
   fit-margin-top="0"
   fit-margin-left="0"
   fit-margin-right="0"
   fit-margin-bottom="0" />
<g
   id="g928"
   transform="matrix(0.06834263,0,0,0.06834263,0,-0.29223309)">
	<g
   id="g926">
		<path
   d="M 503.983,4.276 H 8.017 C 3.589,4.276 0,7.865 0,12.292 v 102.614 384.802 c 0,4.427 3.589,8.017 8.017,8.017 h 495.967 c 4.428,0 8.017,-3.589 8.017,-8.017 V 114.906 12.292 C 512,7.865 508.412,4.276 503.983,4.276 Z m -8.016,487.415 H 16.033 V 122.923 h 479.933 v 368.768 z m 0,-384.802 H 16.033 v -86.58 h 479.933 v 86.58 z"
   id="path924" />
	</g>
</g>
<g
   id="g934"
   transform="matrix(0.06834263,0,0,0.06834263,0,-0.29223309)">
	<g
   id="g932">
		<path
   d="M 427.023,38.48 H 332.96 c -4.428,0 -8.017,3.589 -8.017,8.017 0,4.427 3.588,8.017 8.017,8.017 h 94.063 c 4.428,0 8.017,-3.589 8.017,-8.017 0,-4.427 -3.589,-8.017 -8.017,-8.017 z"
   id="path930" />
	</g>
</g>
<g
   id="g940"
   transform="matrix(0.06834263,0,0,0.06834263,0,-0.29223309)">
	<g
   id="g938">
		<path
   d="m 469.779,38.48 h -17.102 c -4.428,0 -8.017,3.589 -8.017,8.017 0,4.427 3.588,8.017 8.017,8.017 h 17.102 c 4.428,0 8.017,-3.589 8.017,-8.017 -10e-4,-4.427 -3.589,-8.017 -8.017,-8.017 z"
   id="path936" />
	</g>
</g>
<g
   id="g946"
   transform="matrix(0.06834263,0,0,0.06834263,0,-0.29223309)">
	<g
   id="g944">
		<path
   d="m 264.551,29.929 c -18.566,0 -33.67,15.105 -33.67,33.67 0,18.565 15.105,33.67 33.67,33.67 18.565,0 33.67,-15.104 33.67,-33.67 0,-18.566 -15.104,-33.67 -33.67,-33.67 z m 0,51.307 c -9.725,0 -17.637,-7.912 -17.637,-17.637 0,-9.725 7.912,-17.637 17.637,-17.637 9.725,0 17.637,7.912 17.637,17.637 0,9.725 -7.912,17.637 -17.637,17.637 z"
   id="path942" />
	</g>
</g>
<g
   id="g952"
   transform="matrix(0.06834263,0,0,0.06834263,0,-0.29223309)">
	<g
   id="g950">
		<path
   d="m 170.489,29.929 c -18.566,0 -33.67,15.105 -33.67,33.67 0,18.565 15.105,33.67 33.67,33.67 18.565,0 33.67,-15.104 33.67,-33.67 0,-18.566 -15.105,-33.67 -33.67,-33.67 z m 0,51.307 c -9.725,0 -17.637,-7.912 -17.637,-17.637 0,-9.725 7.912,-17.637 17.637,-17.637 9.725,0 17.637,7.912 17.637,17.637 0,9.725 -7.913,17.637 -17.637,17.637 z"
   id="path948" />
	</g>
</g>
<g
   id="g958"
   transform="matrix(0.06834263,0,0,0.06834263,0,-0.29223309)">
	<g
   id="g956">
		<path
   d="m 76.426,29.929 c -18.566,0 -33.67,15.105 -33.67,33.67 0,18.565 15.105,33.67 33.67,33.67 18.565,0 33.67,-15.104 33.67,-33.67 0,-18.566 -15.104,-33.67 -33.67,-33.67 z m 0,51.307 c -9.725,0 -17.637,-7.912 -17.637,-17.637 0,-9.725 7.912,-17.637 17.637,-17.637 9.725,0 17.637,7.912 17.637,17.637 0,9.725 -7.912,17.637 -17.637,17.637 z"
   id="path954" />
	</g>
</g>
<g
   id="g964"
   transform="matrix(0.06834263,0,0,0.06834263,0,-0.29223309)">
	<g
   id="g962">
		<path
   d="m 168.877,232.063 c 0.174,-6.422 -2.163,-12.527 -6.582,-17.191 -4.419,-4.664 -10.389,-7.327 -16.81,-7.501 -6.403,-0.175 -12.526,2.164 -17.19,6.582 l -81.236,76.96 c -4.866,4.61 -7.602,11.098 -7.507,17.801 0.095,6.703 3.015,13.112 8.011,17.581 l 81.237,72.686 c 4.417,3.951 10.109,6.126 16.028,6.126 0.001,0 0.002,0 0.003,0 6.837,0 13.371,-2.92 17.929,-8.014 8.842,-9.883 7.996,-25.117 -1.887,-33.96 l -61.769,-55.267 62.274,-58.995 c 4.661,-4.417 7.325,-10.387 7.499,-16.808 z m -18.529,5.169 -68.594,64.983 c -1.627,1.541 -2.534,3.693 -2.502,5.935 0.032,2.24 1,4.365 2.67,5.86 l 68.258,61.073 c 3.294,2.947 3.577,8.025 0.63,11.32 -1.541,1.723 -3.665,2.672 -5.982,2.672 -1.971,0 -3.867,-0.725 -5.339,-2.043 L 58.253,314.347 c -1.665,-1.49 -2.639,-3.626 -2.671,-5.86 -0.031,-2.234 0.881,-4.397 2.502,-5.933 l 81.236,-76.96 c 1.501,-1.422 3.449,-2.198 5.508,-2.198 0.074,0 0.149,0.001 0.222,0.003 2.141,0.058 4.13,0.946 5.603,2.5 1.473,1.554 2.252,3.589 2.194,5.73 -0.056,2.141 -0.944,4.131 -2.499,5.603 z"
   id="path960" />
	</g>
</g>
<g
   id="g970"
   transform="matrix(0.06834263,0,0,0.06834263,0,-0.29223309)">
	<g
   id="g968">
		<path
   d="m 464.942,290.914 -81.236,-76.96 c -9.626,-9.119 -24.878,-8.709 -34.001,0.919 -9.119,9.626 -8.707,24.879 0.919,33.999 l 62.274,58.995 -61.769,55.267 c -9.882,8.843 -10.729,24.076 -1.887,33.961 4.558,5.092 11.092,8.013 17.927,8.013 0.001,0 0.002,0 0.003,0 5.921,0 11.614,-2.176 16.029,-6.127 l 81.236,-72.685 c 4.997,-4.471 7.917,-10.88 8.01,-17.583 0.096,-6.702 -2.64,-13.19 -7.505,-17.799 z m -11.196,23.434 -81.236,72.685 c -1.472,1.317 -3.367,2.043 -5.339,2.043 h -10e-4 c -2.314,0 -4.438,-0.949 -5.979,-2.671 -2.948,-3.294 -2.666,-8.373 0.628,-11.321 l 68.257,-61.073 c 1.671,-1.494 2.639,-3.619 2.67,-5.86 0.032,-2.241 -0.875,-4.393 -2.502,-5.935 L 361.65,237.233 c -3.209,-3.04 -3.347,-8.125 -0.307,-11.333 1.574,-1.661 3.696,-2.499 5.822,-2.499 1.98,0 3.965,0.727 5.511,2.193 l 81.236,76.96 c 1.623,1.536 2.533,3.699 2.502,5.933 v 0.002 h 0.001 c -0.03,2.233 -1.002,4.369 -2.669,5.859 z"
   id="path966" />
	</g>
</g>
<g
   id="g976"
   transform="matrix(0.06834263,0,0,0.06834263,0,-0.29223309)">
	<g
   id="g974">
		<path
   d="m 317.703,233.713 c -1.67,-6.204 -5.656,-11.386 -11.222,-14.59 0,-10e-4 -10e-4,-10e-4 -10e-4,-10e-4 -11.495,-6.614 -26.226,-2.647 -32.842,8.843 l -81.236,141.094 c -6.617,11.492 -2.65,26.225 8.843,32.843 3.648,2.099 7.792,3.21 11.983,3.21 8.585,0 16.577,-4.619 20.857,-12.053 l 81.236,-141.093 c 3.205,-5.568 4.052,-12.051 2.382,-18.253 z m -16.276,10.251 -81.235,141.094 c -1.427,2.479 -4.096,4.019 -6.963,4.019 -1.409,0 -2.749,-0.36 -3.985,-1.071 -3.831,-2.205 -5.153,-7.117 -2.948,-10.948 l 81.237,-141.094 c 1.481,-2.573 4.184,-4.014 6.961,-4.014 1.356,0 2.73,0.344 3.987,1.068 1.856,1.068 3.184,2.795 3.74,4.862 0.557,2.067 0.275,4.228 -0.794,6.084 z"
   id="path972" />
	</g>
</g>
<g
   id="g978"
   transform="matrix(0.06834263,0,0,0.06834263,0,-0.29223309)">
</g>
<g
   id="g980"
   transform="matrix(0.06834263,0,0,0.06834263,0,-0.29223309)">
</g>
<g
   id="g982"
   transform="matrix(0.06834263,0,0,0.06834263,0,-0.29223309)">
</g>
<g
   id="g984"
   transform="matrix(0.06834263,0,0,0.06834263,0,-0.29223309)">
</g>
<g
   id="g986"
   transform="matrix(0.06834263,0,0,0.06834263,0,-0.29223309)">
</g>
<g
   id="g988"
   transform="matrix(0.06834263,0,0,0.06834263,0,-0.29223309)">
</g>
<g
   id="g990"
   transform="matrix(0.06834263,0,0,0.06834263,0,-0.29223309)">
</g>
<g
   id="g992"
   transform="matrix(0.06834263,0,0,0.06834263,0,-0.29223309)">
</g>
<g
   id="g994"
   transform="matrix(0.06834263,0,0,0.06834263,0,-0.29223309)">
</g>
<g
   id="g996"
   transform="matrix(0.06834263,0,0,0.06834263,0,-0.29223309)">
</g>
<g
   id="g998"
   transform="matrix(0.06834263,0,0,0.06834263,0,-0.29223309)">
</g>
<g
   id="g1000"
   transform="matrix(0.06834263,0,0,0.06834263,0,-0.29223309)">
</g>
<g
   id="g1002"
   transform="matrix(0.06834263,0,0,0.06834263,0,-0.29223309)">
</g>
<g
   id="g1004"
   transform="matrix(0.06834263,0,0,0.06834263,0,-0.29223309)">
</g>
<g
   id="g1006"
   transform="matrix(0.06834263,0,0,0.06834263,0,-0.29223309)">
</g>
<path
   id="path911"
   d="M 0.21588339,34.223423 C 0.06362682,34.071165 0.0626999,33.968117 0.0626999,17.19363 0.0626999,0.94111611 0.06787954,0.31233307 0.20276634,0.19026221 0.33222221,0.07310625 1.6426015,0.06350382 17.500629,0.06350382 h 17.157798 l 0.145906,0.16122592 C 34.946884,0.38224675 34.95024,0.77355576 34.95024,17.234866 v 16.848909 l -0.180816,0.146415 c -0.176825,0.143183 -0.558568,0.146415 -17.290587,0.146415 -17.00764779,0 -17.11068442,-9.09e-4 -17.26295361,-0.153182 z M 33.916251,20.743275 V 8.1056374 H 17.487322 1.0583926 V 20.743275 33.380913 H 17.487322 33.916251 Z m 0,-16.6970004 V 1.0591965 H 17.487322 1.0583926 V 4.0462746 7.0333524 H 17.487322 33.916251 Z"
   style="fill:#ffffff;fill-opacity:1;stroke:none;stroke-width:0.0765915" /><path
   id="path913"
   d="m 22.657265,3.3792038 c -0.225264,-0.082828 -0.382941,-0.2788074 -0.381786,-0.4745283 0.0031,-0.5393249 0.03144,-0.5434193 3.750269,-0.5434193 h 3.301962 l 0.187997,0.1879979 c 0.304427,0.3044263 0.215094,0.6532724 -0.204773,0.7996386 -0.250368,0.087279 -6.422269,0.1153953 -6.653669,0.030311 z"
   style="fill:#ffffff;fill-opacity:1;stroke:none;stroke-width:0.0765915" /><path
   id="path915"
   d="M 30.777499,3.33985 C 30.485956,3.1851422 30.379595,2.9157727 30.510273,2.6630695 c 0.141999,-0.2745943 0.235916,-0.3018133 1.04138,-0.3018133 0.6268,0 0.702902,0.016359 0.87454,0.1879979 0.224644,0.2246433 0.23829,0.4222495 0.04559,0.6602182 -0.125399,0.1548616 -0.223714,0.1791637 -0.823361,0.203523 -0.463755,0.018839 -0.741551,-0.00449 -0.870927,-0.073145 z"
   style="fill:#a0a0a0;stroke:none;stroke-width:0.0765915" /><path
   id="path917"
   d="M 30.652864,3.1641943 C 30.455126,2.966456 30.454148,2.739575 30.650205,2.5404038 c 0.08564,-0.087014 0.722217,-0.1443483 1.29384,-0.1165324 0.33665,0.016382 0.593586,0.2360467 0.593586,0.5074798 0,0.3172014 -0.258822,0.4255977 -1.016217,0.4255977 -0.619885,0 -0.691703,-0.015939 -0.868519,-0.1927546 z"
   style="fill:#ffffff;fill-opacity:1;stroke:none;stroke-width:0.0765915" /><path
   id="path919"
   d="M 17.510545,6.2405445 C 16.460882,5.9471733 15.779884,4.9883205 15.85711,3.9124907 c 0.06228,-0.8676773 0.461532,-1.4720175 1.22426,-1.853157 0.840329,-0.4199177 1.797421,-0.2879071 2.50138,0.3450126 0.961387,0.8643698 0.990274,2.3282477 0.06384,3.2351115 -0.574489,0.5623529 -1.421663,0.8007493 -2.136043,0.6010867 z m 1.222093,-1.1215717 c 0.37086,-0.2261161 0.553966,-0.57748 0.554304,-1.0636578 5.39e-4,-0.7756391 -0.557166,-1.2887477 -1.320985,-1.2153543 -0.682198,0.06555 -1.091369,0.5178161 -1.091369,1.2063139 0,0.5024227 0.138747,0.7571379 0.573659,1.0531365 0.331661,0.2257263 0.931276,0.2348587 1.284391,0.019562 z"
   style="fill:#a0a0a0;stroke:none;stroke-width:0.0765915" /><path
   id="path921"
   d="M 17.426254,6.1569651 C 16.469464,5.81567 15.917192,5.0432186 15.917192,4.0462746 c 0,-0.8941642 0.396667,-1.5313447 1.199304,-1.9264813 0.401384,-0.197601 0.595225,-0.2466 0.972226,-0.2457589 0.820031,0.00183 1.556496,0.4584472 1.948265,1.2079486 0.29217,0.5589583 0.29139,1.3710699 -0.0019,1.9322467 -0.497495,0.9520395 -1.685128,1.4722444 -2.608876,1.1427354 z M 18.804811,5.1216598 C 19.181205,4.8921594 19.30847,4.5758352 19.273488,3.9567435 19.246012,3.470471 19.222567,3.4097279 18.961649,3.1488109 18.706072,2.893233 18.634235,2.8641341 18.198309,2.8396041 c -0.804499,-0.04527 -1.248223,0.2954763 -1.33461,1.0248809 -0.06492,0.548148 0.07244,0.9081071 0.451233,1.1825056 0.262647,0.1902602 0.381961,0.2247079 0.777467,0.2244656 0.328183,-1.991e-4 0.540172,-0.044775 0.712412,-0.1497964 z"
   style="fill:#a0a0a0;stroke:none;stroke-width:0.0765915" /><path
   id="path923"
   d="m 17.426254,6.1616636 c -0.967734,-0.3608325 -1.509062,-1.119662 -1.509062,-2.115389 0,-0.8941642 0.396667,-1.5313447 1.199304,-1.9264813 0.401384,-0.197601 0.595225,-0.2466 0.972226,-0.2457589 0.820031,0.00183 1.556496,0.4584472 1.948265,1.2079486 0.291317,0.5573256 0.291317,1.3712575 0,1.9285832 -0.497096,0.9510047 -1.711428,1.4864155 -2.610733,1.1510974 z M 18.791335,5.1173517 C 19.157601,4.8909868 19.310369,4.5124042 19.2729,3.9239597 19.24849,3.5406143 19.202437,3.3961578 19.05398,3.2372583 18.777065,2.9408654 18.497521,2.820792 18.084712,2.8209256 c -0.52047,1.685e-4 -0.868021,0.1970859 -1.076088,0.6096961 -0.315114,0.6248897 -0.171125,1.2973233 0.35424,1.6543185 0.36243,0.2462778 1.056931,0.2620358 1.428471,0.032412 z"
   style="fill:#a0a0a0;stroke:none;stroke-width:0.0765915" /><path
   id="path925"
   d="M 17.163295,6.0389103 C 16.338742,5.6216416 15.917192,4.9461848 15.917192,4.0422602 c 0,-0.8900184 0.397981,-1.527977 1.199304,-1.9224669 0.401384,-0.197601 0.595225,-0.2466 0.972226,-0.2457589 0.820031,0.00183 1.556496,0.4584472 1.948265,1.2079486 0.291317,0.5573256 0.291317,1.3712575 0,1.9285832 -0.378841,0.7247685 -1.080605,1.1818101 -1.898635,1.236534 -0.442823,0.029624 -0.550589,0.00661 -0.975057,-0.2081899 z M 18.746363,5.1317891 C 19.101486,4.9413347 19.287295,4.5686292 19.286942,4.0474695 19.286428,3.2939806 18.828837,2.8216369 18.098861,2.821093 c -0.523553,-3.907e-4 -0.875633,0.198311 -1.095244,0.6181148 -0.33307,0.6366923 -0.121455,1.4175239 0.46212,1.7051563 0.340225,0.1676904 0.955772,0.1616461 1.280626,-0.012575 z"
   style="fill:#ffffff;fill-opacity:1;stroke:none;stroke-width:0.0765915" /><path
   id="path927"
   d="M 11.245095,6.2754806 C 10.579307,6.1349865 10.005445,5.7088026 9.6723886,5.1074956 9.4701791,4.7424227 9.4452896,4.6256954 9.4461077,4.0462746 9.4468775,3.519892 9.4799445,3.3333105 9.618958,3.071764 9.8630195,2.6125734 10.284138,2.2187603 10.767967,1.9972557 11.129332,1.8318176 11.264096,1.8109659 11.77923,1.8407865 c 0.660172,0.038217 1.066022,0.2225784 1.510771,0.6862822 0.614541,0.6407341 0.783085,1.71586 0.38825,2.4766027 -0.478446,0.9218372 -1.517609,1.4650074 -2.433156,1.2718092 z m 1.075964,-1.1763298 c 0.35948,-0.2422531 0.550137,-0.6035978 0.550137,-1.04265 0,-0.4466323 -0.163021,-0.7820882 -0.495217,-1.0190285 -0.340634,-0.242958 -1.095052,-0.2539193 -1.407754,-0.020454 -0.401921,0.3000765 -0.527343,0.5448749 -0.527343,1.0292561 0,0.5024227 0.138747,0.7571379 0.573659,1.0531364 0.349302,0.2377332 0.953539,0.2376128 1.306518,-2.6e-4 z"
   style="fill:#ffffff;fill-opacity:1;stroke:none;stroke-width:0.0765915" /><path
   id="path929"
   d="M 4.67247,6.2273337 C 3.3500439,5.8619786 2.6529777,4.524896 3.125928,3.2608232 3.319743,2.7428062 3.7977993,2.242856 4.3340833,1.997337 4.6947811,1.8322041 4.8303495,1.8110775 5.3365774,1.8411108 5.9864836,1.8796687 6.2699762,1.9965095 6.736707,2.4181727 7.2237929,2.8582254 7.4435479,3.3604337 7.449129,4.0462746 7.4527681,4.4951509 7.4158591,4.6977214 7.2802062,4.9730237 6.7927432,5.962319 5.669242,6.5027182 4.67247,6.2273337 Z M 5.8873529,5.0991508 C 6.8635489,4.4412924 6.512133,2.9500183 5.3547065,2.8388043 4.8878847,2.7939486 4.5069247,2.95789 4.2278986,3.323712 4.0437579,3.5651329 4.0071748,3.6861462 4.0071748,4.0538439 c 0,0.4942166 0.1409079,0.7510392 0.5736592,1.0455672 0.3493024,0.2377331 0.9535391,0.2376127 1.3065189,-2.603e-4 z"
   style="fill:#ffffff;fill-opacity:1;stroke:none;stroke-width:0.0765915" /><path
   id="path931"
   d="m 13.842112,27.151954 c -0.504217,-0.266196 -0.782963,-0.709304 -0.82089,-1.304927 -0.02275,-0.357339 0.0041,-0.552689 0.10267,-0.745195 0.194963,-0.380991 5.375773,-9.389997 5.633717,-9.796571 0.317744,-0.500833 0.675609,-0.715027 1.256422,-0.75201 0.577705,-0.03678 0.910671,0.0982 1.296958,0.525767 0.336666,0.37265 0.470688,0.834643 0.376694,1.298528 -0.04706,0.232236 -0.990073,1.943611 -2.890991,5.246534 -1.551635,2.69603 -2.902278,5.010359 -3.001429,5.142954 -0.408737,0.546609 -1.310326,0.724291 -1.953151,0.38492 z m 1.105217,-0.989813 c 0.103157,-0.09478 1.437182,-2.343707 2.964502,-4.997611 2.109392,-3.665328 2.777874,-4.887492 2.780814,-5.084072 0.0069,-0.465451 -0.571689,-0.721021 -0.931444,-0.411386 -0.08565,0.07372 -1.416423,2.326746 -2.957268,5.006726 -2.011511,3.498606 -2.801536,4.938747 -2.801536,5.106939 0,0.161838 0.06238,0.283321 0.201809,0.392993 0.261549,0.205734 0.509355,0.201204 0.743123,-0.01359 z"
   style="fill:#ffffff;fill-opacity:1;stroke:none;stroke-width:0.0765915" /><path
   id="path933"
   d="m 24.457171,27.209962 c -0.818856,-0.425008 -1.176333,-1.370979 -0.80651,-2.134219 0.10941,-0.225799 0.762103,-0.857957 2.374345,-2.299644 1.222901,-1.093534 2.223456,-2.007978 2.223456,-2.032097 0,-0.02412 -0.998986,-0.987217 -2.21997,-2.140218 -2.354276,-2.223192 -2.530189,-2.437165 -2.527036,-3.073782 0.0057,-1.164307 1.292062,-1.971256 2.281144,-1.431061 0.491137,0.268238 6.112023,5.623471 6.295893,5.998338 0.197224,0.402093 0.197698,0.964311 0.0012,1.370314 -0.11265,0.232707 -0.909778,0.991364 -3.103596,2.953816 -1.623608,1.452377 -3.080528,2.700097 -3.237602,2.772712 -0.357142,0.165106 -0.978883,0.172793 -1.28128,0.01584 z m 3.784236,-3.476297 c 1.597814,-1.430443 2.928257,-2.673717 2.956541,-2.762829 0.02828,-0.08911 0.03129,-0.242258 0.0066,-0.340322 -0.05728,-0.22825 -5.728398,-5.613228 -5.977272,-5.675691 -0.453252,-0.113759 -0.849364,0.356925 -0.659508,0.783668 0.05329,0.11979 1.176448,1.234556 2.495897,2.477256 1.31945,1.242702 2.418721,2.334268 2.442824,2.425702 0.0241,0.09143 0.02347,0.219299 -0.0014,0.284143 -0.02489,0.06485 -1.128093,1.087201 -2.451577,2.271904 -1.323485,1.184703 -2.440483,2.21781 -2.482218,2.295793 -0.124881,0.233342 -0.08699,0.454076 0.112116,0.653185 0.409142,0.409142 0.395391,0.418467 3.557942,-2.412809 z"
   style="fill:#ffffff;fill-opacity:1;stroke:none;stroke-width:0.0765915" /><path
   id="path935"
   d="M 9.1923914,27.157834 C 8.9528298,27.026851 4.3306491,22.95389 3.2133933,21.889277 2.787607,21.483553 2.636015,20.765615 2.8619541,20.224866 c 0.1556133,-0.372435 0.033732,-0.248475 3.2674897,-3.323217 2.9146256,-2.771304 3.1691824,-2.971675 3.7752954,-2.971675 0.5781368,0 1.2412918,0.439122 1.4659658,0.97072 0.151644,0.358804 0.130683,0.971425 -0.04503,1.315839 -0.09049,0.177372 -1.01717,1.115605 -2.3551964,2.384552 -1.2133035,1.150666 -2.2060068,2.116724 -2.2060068,2.146795 0,0.03007 1.0053471,0.954848 2.2341043,2.055058 2.4894619,2.229025 2.5292329,2.279316 2.4602649,3.110983 -0.09103,1.097717 -1.310122,1.766798 -2.2664554,1.243913 z m 1.0987876,-1.01136 c 0.25412,-0.254119 0.245898,-0.575721 -0.02155,-0.843173 C 10.154373,25.188048 9.0369829,24.179023 7.7865359,23.061022 6.5360896,21.943021 5.4953575,20.96084 5.4737982,20.878396 c -0.021559,-0.08244 -0.019581,-0.201018 0.00439,-0.263501 0.023977,-0.06248 1.1331572,-1.147055 2.4648451,-2.410162 1.3316882,-1.263107 2.4537537,-2.380514 2.4934797,-2.483127 0.156086,-0.403174 -0.244336,-0.878442 -0.6535688,-0.775731 -0.1032718,0.02592 -1.4862162,1.275662 -3.0732097,2.777206 -3.0771797,2.911492 -3.1428373,2.989414 -2.8447024,3.37608 0.078175,0.101389 1.4138559,1.320812 2.9681787,2.709828 3.0636217,2.737796 3.0600595,2.735389 3.4579632,2.337485 z"
   style="fill:#ffffff;fill-opacity:1;stroke:none;stroke-width:0.0765915" /><path
   id="path945"
   d="m 34.993177,13.26648 c 0,-7.0033577 0.0022,-9.8655051 0.0048,-6.3603278 0.0027,3.5051778 0.0027,9.2351978 0,12.7333778 -0.0027,3.498181 -0.0048,0.630308 -0.0048,-6.37305 z"
   style="fill:#a0a0a0;stroke:none;stroke-width:0.0191479" /></svg>
