<?xml version="1.0" encoding="UTF-8" standalone="no"?>
<svg
   xmlns:dc="http://purl.org/dc/elements/1.1/"
   xmlns:cc="http://creativecommons.org/ns#"
   xmlns:rdf="http://www.w3.org/1999/02/22-rdf-syntax-ns#"
   xmlns:svg="http://www.w3.org/2000/svg"
   xmlns="http://www.w3.org/2000/svg"
   xmlns:sodipodi="http://sodipodi.sourceforge.net/DTD/sodipodi-0.dtd"
   xmlns:inkscape="http://www.inkscape.org/namespaces/inkscape"
   inkscape:version="1.0 (4035a4fb49, 2020-05-01)"
   height="50"
   width="50"
   sodipodi:docname="seo2.svg"
   xml:space="preserve"
   viewBox="0 0 60 60"
   y="0px"
   x="0px"
   id="Capa_1"
   version="1.1"><metadata
   id="metadata1744"><rdf:RDF><cc:Work
       rdf:about=""><dc:format>image/svg+xml</dc:format><dc:type
         rdf:resource="http://purl.org/dc/dcmitype/StillImage" /><dc:title></dc:title></cc:Work></rdf:RDF></metadata><defs
   id="defs1742" /><sodipodi:namedview
   inkscape:current-layer="Capa_1"
   inkscape:window-maximized="1"
   inkscape:window-y="-8"
   inkscape:window-x="-8"
   inkscape:cy="113.38406"
   inkscape:cx="-96.248718"
   inkscape:zoom="2.5043365"
   scale-x="1.2"
   fit-margin-bottom="0"
   fit-margin-right="0"
   fit-margin-left="0"
   fit-margin-top="0"
   showgrid="false"
   id="namedview1740"
   inkscape:window-height="1017"
   inkscape:window-width="1920"
   inkscape:pageshadow="2"
   inkscape:pageopacity="0"
   guidetolerance="10"
   gridtolerance="10"
   objecttolerance="10"
   borderopacity="1"
   bordercolor="#666666"
   pagecolor="#ffffff" />
<g
   transform="scale(0.83333333)"
   id="g1707">
	<g
   id="g1705">
		<path
   id="path1677"
   d="M 57,0 H 3 C 1.3,0 0,1.3 0,3 v 37 9 c 0,0.6 0.4,1 1,1 H 18 V 48 H 2 V 41 H 18 V 39 H 2 V 3 C 2,2.4 2.4,2 3,2 h 54 c 0.6,0 1,0.4 1,1 V 39 H 43 v 2 h 15 v 7 H 43 v 2 h 16 c 0.6,0 1,-0.4 1,-1 V 40 3 C 60,1.3 58.7,0 57,0 Z" />
		<path
   id="path1679"
   d="M 46.3,26 H 51 V 24 H 46.2 C 45.7,15.9 39.1,9.4 31,9 V 5 H 29 V 9.1 C 21.1,9.7 14.8,16.1 14.4,24 H 8 v 2 h 6.3 c 0.4,7.2 5.6,13.2 12.7,14.6 V 46 h -2 c -0.6,0 -1,0.4 -1,1 v 13 h 2 v -3 h 5 v -2 h -5 v -3 h 5 v -2 h -5 v -2 h 2 5 2 v 12 h 2 V 47 c 0,-0.6 -0.4,-1 -1,-1 H 34 V 40.6 C 40.9,39 45.8,33.1 46.3,26 Z m -2.1,-2 h -2 C 41.7,18.1 36.9,13.4 31,13 v -2 c 7,0.4 12.7,6 13.2,13 z M 29,24 h -8.7 c 0.5,-4.6 4.1,-8.3 8.7,-8.9 z m -5,2 v 3 h 2 v -3 h 3 v 7 h 2 v -7 h 4 v 3 h 2 v -3 h 3.2 c -0.5,5 -4.8,9 -9.9,9 -5.1,0 -9.4,-4 -9.9,-9 z m 7,-2 v -9 c 4.8,0.3 8.8,4.2 9.2,9 z M 29,11.1 v 2 C 23.2,13.7 18.8,18.3 18.3,24 h -2 C 16.8,17.2 22.2,11.7 29,11.1 Z M 29,46 v -6.2 c 0,-0.5 -0.3,-0.9 -0.8,-1 C 21.6,37.8 16.8,32.5 16.3,26 h 2 c 0.5,6.1 5.7,11 11.9,11 6.3,0 11.4,-4.9 11.9,-11 h 2 c -0.4,6.4 -5.1,11.7 -11.5,12.8 -0.5,0.1 -0.8,0.5 -0.8,1 V 46 Z" />
		<rect
   id="rect1681"
   height="2"
   width="4"
   y="5"
   x="43" />
		<rect
   id="rect1683"
   height="2"
   width="4"
   y="9"
   x="43" />
		<rect
   id="rect1685"
   height="2"
   width="4"
   y="5"
   x="50" />
		<rect
   id="rect1687"
   height="2"
   width="4"
   y="9"
   x="50" />
		<rect
   id="rect1689"
   height="2"
   width="4"
   y="13"
   x="50" />
		<rect
   id="rect1691"
   height="2"
   width="4"
   y="17"
   x="50" />
		<rect
   id="rect1693"
   height="2"
   width="4"
   y="5"
   x="13" />
		<rect
   id="rect1695"
   height="2"
   width="4"
   y="9"
   x="13" />
		<rect
   id="rect1697"
   height="2"
   width="4"
   y="5"
   x="6" />
		<rect
   id="rect1699"
   height="2"
   width="4"
   y="9"
   x="6" />
		<rect
   id="rect1701"
   height="2"
   width="4"
   y="13"
   x="6" />
		<rect
   id="rect1703"
   height="2"
   width="4"
   y="17"
   x="6" />
	</g>
</g>
<g
   transform="scale(0.83333333)"
   id="g1709">
</g>
<g
   transform="scale(0.83333333)"
   id="g1711">
</g>
<g
   transform="scale(0.83333333)"
   id="g1713">
</g>
<g
   transform="scale(0.83333333)"
   id="g1715">
</g>
<g
   transform="scale(0.83333333)"
   id="g1717">
</g>
<g
   transform="scale(0.83333333)"
   id="g1719">
</g>
<g
   transform="scale(0.83333333)"
   id="g1721">
</g>
<g
   transform="scale(0.83333333)"
   id="g1723">
</g>
<g
   transform="scale(0.83333333)"
   id="g1725">
</g>
<g
   transform="scale(0.83333333)"
   id="g1727">
</g>
<g
   transform="scale(0.83333333)"
   id="g1729">
</g>
<g
   transform="scale(0.83333333)"
   id="g1731">
</g>
<g
   transform="scale(0.83333333)"
   id="g1733">
</g>
<g
   transform="scale(0.83333333)"
   id="g1735">
</g>
<g
   transform="scale(0.83333333)"
   id="g1737">
</g>
</svg>
