<?xml version="1.0" encoding="iso-8859-1"?>
<!-- Generator: Adobe Illustrator 19.0.0, SVG Export Plug-In . SVG Version: 6.00 Build 0)  -->
<svg version="1.1" id="Capa_1" xmlns="http://www.w3.org/2000/svg" xmlns:xlink="http://www.w3.org/1999/xlink" x="0px" y="0px"
	 viewBox="0 0 490 490" style="enable-background:new 0 0 490 490;" xml:space="preserve">
<g>
	<path d="M245,104.373c-135.094,0-245,109.905-245,245c0,8.725,0.51,17.796,1.508,26.959l1.012,9.295h484.956l1.018-9.285
		c0.998-9.123,1.506-18.195,1.506-26.97C490,214.277,380.095,104.373,245,104.373z M468.599,364.776h-45.911
		c0.523-5.394,0.788-10.501,0.788-15.404c0-5.601-0.26-11.22-0.774-16.718l-20.759,1.935c0.452,4.856,0.682,9.834,0.682,14.784
		c0,4.907-0.286,9.926-0.886,15.404H260.658l46.692-111.647l-19.232-8.043l-50.055,119.69H88.267
		c-0.602-5.478-0.886-10.497-0.886-15.404c0-4.949,0.229-9.927,0.682-14.784l-20.759-1.935c-0.514,5.498-0.774,11.118-0.774,16.718
		c0,4.903,0.261,10.006,0.786,15.404H21.401c-0.367-5.234-0.55-10.385-0.55-15.404c0-123.6,100.555-224.149,224.149-224.149
		c123.595,0,224.149,100.549,224.149,224.149C469.149,354.411,468.966,359.563,468.599,364.776z"/>
	<path d="M207.722,174.795l4.347,20.404c21.528-4.602,44.522-4.552,66.02,0.03l4.347-20.403
		C258.083,169.654,232.096,169.613,207.722,174.795z"/>
	<path d="M89.814,261.151l18.123,10.325c10.913-19.171,26.104-36.215,43.922-49.277l-12.33-16.819
		C119.365,220.173,102.173,239.456,89.814,261.151z"/>
	<path d="M350.61,205.481L338.26,222.28c17.812,13.093,32.986,30.146,43.88,49.328l18.133-10.304
		C387.939,239.599,370.763,220.295,350.61,205.481z"/>
</g>
<g>
</g>
<g>
</g>
<g>
</g>
<g>
</g>
<g>
</g>
<g>
</g>
<g>
</g>
<g>
</g>
<g>
</g>
<g>
</g>
<g>
</g>
<g>
</g>
<g>
</g>
<g>
</g>
<g>
</g>
</svg>
