<?xml version="1.0" encoding="UTF-8" standalone="no"?>
<svg
   xmlns:dc="http://purl.org/dc/elements/1.1/"
   xmlns:cc="http://creativecommons.org/ns#"
   xmlns:rdf="http://www.w3.org/1999/02/22-rdf-syntax-ns#"
   xmlns:svg="http://www.w3.org/2000/svg"
   xmlns="http://www.w3.org/2000/svg"
   xmlns:sodipodi="http://sodipodi.sourceforge.net/DTD/sodipodi-0.dtd"
   xmlns:inkscape="http://www.inkscape.org/namespaces/inkscape"
   inkscape:version="1.0 (4035a4fb49, 2020-05-01)"
   height="28.699389"
   width="50"
   sodipodi:docname="speedometer2.svg"
   xml:space="preserve"
   viewBox="0 0 50 28.699389"
   y="0px"
   x="0px"
   id="Capa_1"
   version="1.1"><metadata
   id="metadata2399"><rdf:RDF><cc:Work
       rdf:about=""><dc:format>image/svg+xml</dc:format><dc:type
         rdf:resource="http://purl.org/dc/dcmitype/StillImage" /><dc:title></dc:title></cc:Work></rdf:RDF></metadata><defs
   id="defs2397" /><sodipodi:namedview
   inkscape:current-layer="Capa_1"
   inkscape:window-maximized="1"
   inkscape:window-y="-8"
   inkscape:window-x="-8"
   inkscape:cy="146.39171"
   inkscape:cx="167.75294"
   inkscape:zoom="1.7346939"
   fit-margin-bottom="0"
   fit-margin-right="0"
   fit-margin-left="0"
   fit-margin-top="0"
   inkscape:snap-grids="true"
   showgrid="false"
   id="namedview2395"
   inkscape:window-height="1017"
   inkscape:window-width="1920"
   inkscape:pageshadow="2"
   inkscape:pageopacity="0"
   guidetolerance="10"
   gridtolerance="10"
   objecttolerance="10"
   borderopacity="1"
   bordercolor="#666666"
   pagecolor="#ffffff" />
<g
   transform="matrix(0.10204082,0,0,0.10204082,0,-10.650307)"
   id="g2362">
	<path
   id="path2354"
   d="m 245,104.373 c -135.094,0 -245,109.905 -245,245 0,8.725 0.51,17.796 1.508,26.959 l 1.012,9.295 h 484.956 l 1.018,-9.285 C 489.492,367.219 490,358.147 490,349.372 490,214.277 380.095,104.373 245,104.373 Z m 223.599,260.403 h -45.911 c 0.523,-5.394 0.788,-10.501 0.788,-15.404 0,-5.601 -0.26,-11.22 -0.774,-16.718 l -20.759,1.935 c 0.452,4.856 0.682,9.834 0.682,14.784 0,4.907 -0.286,9.926 -0.886,15.404 H 260.658 L 307.35,253.13 288.118,245.087 238.063,364.777 H 88.267 c -0.602,-5.478 -0.886,-10.497 -0.886,-15.404 0,-4.949 0.229,-9.927 0.682,-14.784 l -20.759,-1.935 c -0.514,5.498 -0.774,11.118 -0.774,16.718 0,4.903 0.261,10.006 0.786,15.404 H 21.401 c -0.367,-5.234 -0.55,-10.385 -0.55,-15.404 0,-123.6 100.555,-224.149 224.149,-224.149 123.595,0 224.149,100.549 224.149,224.149 0,5.039 -0.183,10.191 -0.55,15.404 z" />
	<path
   id="path2356"
   d="m 207.722,174.795 4.347,20.404 c 21.528,-4.602 44.522,-4.552 66.02,0.03 l 4.347,-20.403 c -24.353,-5.172 -50.34,-5.213 -74.714,-0.031 z" />
	<path
   id="path2358"
   d="m 89.814,261.151 18.123,10.325 c 10.913,-19.171 26.104,-36.215 43.922,-49.277 l -12.33,-16.819 c -20.164,14.793 -37.356,34.076 -49.715,55.771 z" />
	<path
   id="path2360"
   d="m 350.61,205.481 -12.35,16.799 c 17.812,13.093 32.986,30.146 43.88,49.328 l 18.133,-10.304 c -12.334,-21.705 -29.51,-41.009 -49.663,-55.823 z" />
</g>
<g
   transform="matrix(0.10204082,0,0,0.10204082,-77.247059,41.232046)"
   id="g2364">
</g>
<g
   transform="matrix(0.10204082,0,0,0.10204082,-77.247059,41.232046)"
   id="g2366">
</g>
<g
   transform="matrix(0.10204082,0,0,0.10204082,-77.247059,41.232046)"
   id="g2368">
</g>
<g
   transform="matrix(0.10204082,0,0,0.10204082,-77.247059,41.232046)"
   id="g2370">
</g>
<g
   transform="matrix(0.10204082,0,0,0.10204082,-77.247059,41.232046)"
   id="g2372">
</g>
<g
   transform="matrix(0.10204082,0,0,0.10204082,-77.247059,41.232046)"
   id="g2374">
</g>
<g
   transform="matrix(0.10204082,0,0,0.10204082,-77.247059,41.232046)"
   id="g2376">
</g>
<g
   transform="matrix(0.10204082,0,0,0.10204082,-77.247059,41.232046)"
   id="g2378">
</g>
<g
   transform="matrix(0.10204082,0,0,0.10204082,-77.247059,41.232046)"
   id="g2380">
</g>
<g
   transform="matrix(0.10204082,0,0,0.10204082,-77.247059,41.232046)"
   id="g2382">
</g>
<g
   transform="matrix(0.10204082,0,0,0.10204082,-77.247059,41.232046)"
   id="g2384">
</g>
<g
   transform="matrix(0.10204082,0,0,0.10204082,-77.247059,41.232046)"
   id="g2386">
</g>
<g
   transform="matrix(0.10204082,0,0,0.10204082,-77.247059,41.232046)"
   id="g2388">
</g>
<g
   transform="matrix(0.10204082,0,0,0.10204082,-77.247059,41.232046)"
   id="g2390">
</g>
<g
   transform="matrix(0.10204082,0,0,0.10204082,-77.247059,41.232046)"
   id="g2392">
</g>
</svg>
